<mxfile host="Electron" modified="2024-01-04T17:42:31.231Z" agent="Mozilla/5.0 (Windows NT 10.0; Win64; x64) AppleWebKit/537.36 (KHTML, like Gecko) draw.io/22.0.2 Chrome/114.0.5735.289 Electron/25.8.4 Safari/537.36" etag="v_sFpl8OODhdBe81wDIg" version="22.0.2" type="device">
  <diagram id="R2lEEEUBdFMjLlhIrx00" name="Page-1">
    <mxGraphModel dx="1418" dy="828" grid="1" gridSize="10" guides="1" tooltips="1" connect="1" arrows="1" fold="1" page="1" pageScale="1" pageWidth="1100" pageHeight="850" math="0" shadow="0" extFonts="Permanent Marker^https://fonts.googleapis.com/css?family=Permanent+Marker">
      <root>
        <mxCell id="0" />
        <mxCell id="1" parent="0" />
        <mxCell id="PUHp0AnHMeHQiZFSW38K-2" value="region" style="ellipse;whiteSpace=wrap;html=1;align=center;" parent="1" vertex="1">
          <mxGeometry x="279" y="350.5" width="80" height="30" as="geometry" />
        </mxCell>
        <mxCell id="PUHp0AnHMeHQiZFSW38K-3" value="region_txt" style="ellipse;whiteSpace=wrap;html=1;align=center;" parent="1" vertex="1">
          <mxGeometry x="330" y="310" width="80" height="30" as="geometry" />
        </mxCell>
        <mxCell id="PUHp0AnHMeHQiZFSW38K-4" value="" style="endArrow=none;html=1;rounded=0;exitX=0.5;exitY=0;exitDx=0;exitDy=0;entryX=1;entryY=1;entryDx=0;entryDy=0;" parent="1" source="nkECsJHCFClMcqE2vH5_-14" target="PUHp0AnHMeHQiZFSW38K-2" edge="1">
          <mxGeometry relative="1" as="geometry">
            <mxPoint x="348.25" y="507.5" as="sourcePoint" />
            <mxPoint x="251" y="410.5" as="targetPoint" />
          </mxGeometry>
        </mxCell>
        <mxCell id="PUHp0AnHMeHQiZFSW38K-5" value="" style="endArrow=none;html=1;rounded=0;exitX=0.5;exitY=1;exitDx=0;exitDy=0;entryX=0.647;entryY=0.05;entryDx=0;entryDy=0;entryPerimeter=0;" parent="1" source="PUHp0AnHMeHQiZFSW38K-3" target="nkECsJHCFClMcqE2vH5_-14" edge="1">
          <mxGeometry relative="1" as="geometry">
            <mxPoint x="275" y="346" as="sourcePoint" />
            <mxPoint x="343" y="340" as="targetPoint" />
          </mxGeometry>
        </mxCell>
        <mxCell id="PUHp0AnHMeHQiZFSW38K-9" value="country" style="ellipse;whiteSpace=wrap;html=1;align=center;" parent="1" vertex="1">
          <mxGeometry x="237.5" y="452.5" width="80" height="30" as="geometry" />
        </mxCell>
        <mxCell id="PUHp0AnHMeHQiZFSW38K-10" value="country_txt" style="ellipse;whiteSpace=wrap;html=1;align=center;" parent="1" vertex="1">
          <mxGeometry x="258" y="400" width="80" height="30" as="geometry" />
        </mxCell>
        <mxCell id="PUHp0AnHMeHQiZFSW38K-11" value="" style="endArrow=none;html=1;rounded=0;exitX=0.15;exitY=0.05;exitDx=0;exitDy=0;entryX=0.5;entryY=1;entryDx=0;entryDy=0;exitPerimeter=0;" parent="1" source="nkECsJHCFClMcqE2vH5_-14" target="PUHp0AnHMeHQiZFSW38K-9" edge="1">
          <mxGeometry relative="1" as="geometry">
            <mxPoint x="330" y="512.5" as="sourcePoint" />
            <mxPoint x="177.5" y="512.5" as="targetPoint" />
          </mxGeometry>
        </mxCell>
        <mxCell id="PUHp0AnHMeHQiZFSW38K-12" value="" style="endArrow=none;html=1;rounded=0;exitX=1;exitY=1;exitDx=0;exitDy=0;entryX=0.36;entryY=-0.05;entryDx=0;entryDy=0;entryPerimeter=0;" parent="1" source="PUHp0AnHMeHQiZFSW38K-10" target="nkECsJHCFClMcqE2vH5_-14" edge="1">
          <mxGeometry relative="1" as="geometry">
            <mxPoint x="307" y="435" as="sourcePoint" />
            <mxPoint x="284.5" y="460" as="targetPoint" />
          </mxGeometry>
        </mxCell>
        <mxCell id="nkECsJHCFClMcqE2vH5_-14" value="terrorism_event" style="whiteSpace=wrap;html=1;align=center;" parent="1" vertex="1">
          <mxGeometry x="288" y="522" width="100" height="40" as="geometry" />
        </mxCell>
        <mxCell id="nkECsJHCFClMcqE2vH5_-15" value="event_id" style="ellipse;whiteSpace=wrap;html=1;align=center;fontStyle=4;" parent="1" vertex="1">
          <mxGeometry x="178" y="427.5" width="80" height="30" as="geometry" />
        </mxCell>
        <mxCell id="nkECsJHCFClMcqE2vH5_-16" value="year" style="ellipse;whiteSpace=wrap;html=1;align=center;fontStyle=4;" parent="1" vertex="1">
          <mxGeometry x="25" y="470" width="80" height="30" as="geometry" />
        </mxCell>
        <mxCell id="nkECsJHCFClMcqE2vH5_-19" value="month" style="ellipse;whiteSpace=wrap;html=1;align=center;fontStyle=4;" parent="1" vertex="1">
          <mxGeometry x="25" y="430" width="80" height="30" as="geometry" />
        </mxCell>
        <mxCell id="nkECsJHCFClMcqE2vH5_-20" value="day" style="ellipse;whiteSpace=wrap;html=1;align=center;fontStyle=4;" parent="1" vertex="1">
          <mxGeometry x="25" y="387" width="80" height="30" as="geometry" />
        </mxCell>
        <mxCell id="nkECsJHCFClMcqE2vH5_-21" value="case_number" style="ellipse;whiteSpace=wrap;html=1;align=center;fontStyle=4;" parent="1" vertex="1">
          <mxGeometry x="118" y="352.5" width="100" height="30" as="geometry" />
        </mxCell>
        <mxCell id="nkECsJHCFClMcqE2vH5_-22" value="" style="endArrow=none;html=1;rounded=0;entryX=1;entryY=0.5;entryDx=0;entryDy=0;exitX=0;exitY=1;exitDx=0;exitDy=0;" parent="1" source="nkECsJHCFClMcqE2vH5_-15" target="nkECsJHCFClMcqE2vH5_-16" edge="1">
          <mxGeometry width="50" height="50" relative="1" as="geometry">
            <mxPoint x="70" y="542.5" as="sourcePoint" />
            <mxPoint x="120" y="492.5" as="targetPoint" />
          </mxGeometry>
        </mxCell>
        <mxCell id="nkECsJHCFClMcqE2vH5_-24" value="" style="endArrow=none;html=1;rounded=0;entryX=1;entryY=0.5;entryDx=0;entryDy=0;exitX=0;exitY=0.5;exitDx=0;exitDy=0;" parent="1" source="nkECsJHCFClMcqE2vH5_-15" target="nkECsJHCFClMcqE2vH5_-19" edge="1">
          <mxGeometry width="50" height="50" relative="1" as="geometry">
            <mxPoint x="230" y="542.5" as="sourcePoint" />
            <mxPoint x="740" y="432.5" as="targetPoint" />
          </mxGeometry>
        </mxCell>
        <mxCell id="nkECsJHCFClMcqE2vH5_-25" value="" style="endArrow=none;html=1;rounded=0;entryX=0.93;entryY=0.75;entryDx=0;entryDy=0;exitX=0;exitY=0;exitDx=0;exitDy=0;entryPerimeter=0;" parent="1" source="nkECsJHCFClMcqE2vH5_-15" target="nkECsJHCFClMcqE2vH5_-20" edge="1">
          <mxGeometry width="50" height="50" relative="1" as="geometry">
            <mxPoint x="690" y="482.5" as="sourcePoint" />
            <mxPoint x="740" y="432.5" as="targetPoint" />
          </mxGeometry>
        </mxCell>
        <mxCell id="nkECsJHCFClMcqE2vH5_-26" value="" style="endArrow=none;html=1;rounded=0;entryX=0.5;entryY=1;entryDx=0;entryDy=0;exitX=0.5;exitY=0;exitDx=0;exitDy=0;" parent="1" source="nkECsJHCFClMcqE2vH5_-15" target="nkECsJHCFClMcqE2vH5_-21" edge="1">
          <mxGeometry width="50" height="50" relative="1" as="geometry">
            <mxPoint x="180" y="652.5" as="sourcePoint" />
            <mxPoint x="230" y="602.5" as="targetPoint" />
          </mxGeometry>
        </mxCell>
        <mxCell id="nkECsJHCFClMcqE2vH5_-27" value="crit1" style="ellipse;shape=ellipse;margin=3;whiteSpace=wrap;html=1;align=center;" parent="1" vertex="1">
          <mxGeometry x="449" y="413.5" width="80" height="30" as="geometry" />
        </mxCell>
        <mxCell id="nkECsJHCFClMcqE2vH5_-28" value="" style="endArrow=none;html=1;rounded=0;exitX=0;exitY=0;exitDx=0;exitDy=0;entryX=0.5;entryY=1;entryDx=0;entryDy=0;" parent="1" source="nkECsJHCFClMcqE2vH5_-14" target="nkECsJHCFClMcqE2vH5_-15" edge="1">
          <mxGeometry relative="1" as="geometry">
            <mxPoint x="640" y="452.5" as="sourcePoint" />
            <mxPoint x="800" y="452.5" as="targetPoint" />
          </mxGeometry>
        </mxCell>
        <mxCell id="nkECsJHCFClMcqE2vH5_-29" value="" style="endArrow=none;html=1;rounded=0;entryX=0;entryY=1;entryDx=0;entryDy=0;exitX=1;exitY=0;exitDx=0;exitDy=0;" parent="1" source="nkECsJHCFClMcqE2vH5_-14" target="nkECsJHCFClMcqE2vH5_-27" edge="1">
          <mxGeometry relative="1" as="geometry">
            <mxPoint x="640" y="452.5" as="sourcePoint" />
            <mxPoint x="800" y="452.5" as="targetPoint" />
          </mxGeometry>
        </mxCell>
        <mxCell id="nkECsJHCFClMcqE2vH5_-30" value="doubt_terr" style="ellipse;whiteSpace=wrap;html=1;align=center;" parent="1" vertex="1">
          <mxGeometry x="168" y="490" width="80" height="30" as="geometry" />
        </mxCell>
        <mxCell id="nkECsJHCFClMcqE2vH5_-60" value="multiple" style="ellipse;whiteSpace=wrap;html=1;align=center;" parent="1" vertex="1">
          <mxGeometry x="168" y="560" width="80" height="30" as="geometry" />
        </mxCell>
        <mxCell id="nkECsJHCFClMcqE2vH5_-61" value="" style="endArrow=none;html=1;rounded=0;exitX=0;exitY=0.25;exitDx=0;exitDy=0;entryX=1;entryY=0.5;entryDx=0;entryDy=0;" parent="1" source="nkECsJHCFClMcqE2vH5_-14" target="nkECsJHCFClMcqE2vH5_-30" edge="1">
          <mxGeometry relative="1" as="geometry">
            <mxPoint x="640" y="452.5" as="sourcePoint" />
            <mxPoint x="800" y="452.5" as="targetPoint" />
          </mxGeometry>
        </mxCell>
        <mxCell id="nkECsJHCFClMcqE2vH5_-62" value="success" style="ellipse;whiteSpace=wrap;html=1;align=center;" parent="1" vertex="1">
          <mxGeometry x="168" y="610" width="80" height="30" as="geometry" />
        </mxCell>
        <mxCell id="nkECsJHCFClMcqE2vH5_-63" value="suicide" style="ellipse;whiteSpace=wrap;html=1;align=center;" parent="1" vertex="1">
          <mxGeometry x="268.75" y="622" width="80" height="30" as="geometry" />
        </mxCell>
        <mxCell id="FFzC2VgaHiQ2Ie_KqDFo-8" value="alternative" style="ellipse;whiteSpace=wrap;html=1;align=center;" parent="1" vertex="1">
          <mxGeometry x="60" y="512.5" width="100" height="30" as="geometry" />
        </mxCell>
        <mxCell id="FFzC2VgaHiQ2Ie_KqDFo-9" value="alternative_txt" style="ellipse;whiteSpace=wrap;html=1;align=center;" parent="1" vertex="1">
          <mxGeometry x="60" y="547.5" width="100" height="30" as="geometry" />
        </mxCell>
        <mxCell id="FFzC2VgaHiQ2Ie_KqDFo-10" value="" style="endArrow=none;html=1;rounded=0;exitX=1;exitY=0.5;exitDx=0;exitDy=0;entryX=0;entryY=0.367;entryDx=0;entryDy=0;entryPerimeter=0;" parent="1" source="FFzC2VgaHiQ2Ie_KqDFo-8" target="nkECsJHCFClMcqE2vH5_-14" edge="1">
          <mxGeometry relative="1" as="geometry">
            <mxPoint x="-183.5" y="182" as="sourcePoint" />
            <mxPoint x="288" y="526.5" as="targetPoint" />
          </mxGeometry>
        </mxCell>
        <mxCell id="FFzC2VgaHiQ2Ie_KqDFo-11" value="" style="endArrow=none;html=1;rounded=0;entryX=1;entryY=0;entryDx=0;entryDy=0;exitX=0.003;exitY=0.558;exitDx=0;exitDy=0;exitPerimeter=0;" parent="1" source="nkECsJHCFClMcqE2vH5_-14" target="FFzC2VgaHiQ2Ie_KqDFo-9" edge="1">
          <mxGeometry relative="1" as="geometry">
            <mxPoint x="290" y="540" as="sourcePoint" />
            <mxPoint x="-138.5" y="257.49" as="targetPoint" />
          </mxGeometry>
        </mxCell>
        <mxCell id="xxvrsZBVpvBbBPzatT5H-1" value="city" style="ellipse;whiteSpace=wrap;html=1;align=center;" parent="1" vertex="1">
          <mxGeometry x="449" y="370" width="80" height="30" as="geometry" />
        </mxCell>
        <mxCell id="xxvrsZBVpvBbBPzatT5H-2" value="provstate" style="ellipse;whiteSpace=wrap;html=1;align=center;" parent="1" vertex="1">
          <mxGeometry x="374.5" y="352.5" width="80" height="30" as="geometry" />
        </mxCell>
        <mxCell id="xxvrsZBVpvBbBPzatT5H-3" value="" style="endArrow=none;html=1;rounded=0;exitX=0.5;exitY=1;exitDx=0;exitDy=0;entryX=0.75;entryY=0;entryDx=0;entryDy=0;" parent="1" source="xxvrsZBVpvBbBPzatT5H-2" target="nkECsJHCFClMcqE2vH5_-14" edge="1">
          <mxGeometry relative="1" as="geometry">
            <mxPoint x="610" y="430" as="sourcePoint" />
            <mxPoint x="770" y="430" as="targetPoint" />
          </mxGeometry>
        </mxCell>
        <mxCell id="xxvrsZBVpvBbBPzatT5H-4" value="" style="endArrow=none;html=1;rounded=0;exitX=0;exitY=1;exitDx=0;exitDy=0;entryX=0.87;entryY=0.013;entryDx=0;entryDy=0;entryPerimeter=0;" parent="1" source="xxvrsZBVpvBbBPzatT5H-1" target="nkECsJHCFClMcqE2vH5_-14" edge="1">
          <mxGeometry relative="1" as="geometry">
            <mxPoint x="610" y="430" as="sourcePoint" />
            <mxPoint x="360" y="520" as="targetPoint" />
          </mxGeometry>
        </mxCell>
        <mxCell id="xxvrsZBVpvBbBPzatT5H-45" value="" style="endArrow=none;html=1;rounded=0;exitX=1;exitY=0.5;exitDx=0;exitDy=0;entryX=0;entryY=0.75;entryDx=0;entryDy=0;" parent="1" source="nkECsJHCFClMcqE2vH5_-60" target="nkECsJHCFClMcqE2vH5_-14" edge="1">
          <mxGeometry relative="1" as="geometry">
            <mxPoint x="280" y="630" as="sourcePoint" />
            <mxPoint x="440" y="630" as="targetPoint" />
          </mxGeometry>
        </mxCell>
        <mxCell id="xxvrsZBVpvBbBPzatT5H-46" value="" style="endArrow=none;html=1;rounded=0;exitX=1;exitY=0.5;exitDx=0;exitDy=0;entryX=0;entryY=1;entryDx=0;entryDy=0;" parent="1" source="nkECsJHCFClMcqE2vH5_-62" target="nkECsJHCFClMcqE2vH5_-14" edge="1">
          <mxGeometry relative="1" as="geometry">
            <mxPoint x="449" y="589" as="sourcePoint" />
            <mxPoint x="320" y="560" as="targetPoint" />
          </mxGeometry>
        </mxCell>
        <mxCell id="ZlW_VbL8mxJAc58jKpAu-1" value="event_target" style="whiteSpace=wrap;html=1;align=center;" parent="1" vertex="1">
          <mxGeometry x="711.5" y="507.5" width="100" height="40" as="geometry" />
        </mxCell>
        <mxCell id="ZlW_VbL8mxJAc58jKpAu-4" value="nationality_txt" style="ellipse;whiteSpace=wrap;html=1;align=center;" parent="1" vertex="1">
          <mxGeometry x="711.5" y="427.5" width="100" height="30" as="geometry" />
        </mxCell>
        <mxCell id="ZlW_VbL8mxJAc58jKpAu-6" value="" style="endArrow=none;html=1;rounded=0;exitX=0.5;exitY=1;exitDx=0;exitDy=0;entryX=0.5;entryY=0;entryDx=0;entryDy=0;" parent="1" source="ZlW_VbL8mxJAc58jKpAu-4" target="ZlW_VbL8mxJAc58jKpAu-1" edge="1">
          <mxGeometry relative="1" as="geometry">
            <mxPoint x="1066.25" y="289.49" as="sourcePoint" />
            <mxPoint x="734.75" y="474.5" as="targetPoint" />
          </mxGeometry>
        </mxCell>
        <mxCell id="ZlW_VbL8mxJAc58jKpAu-9" value="target_subtype_txt" style="ellipse;whiteSpace=wrap;html=1;align=center;" parent="1" vertex="1">
          <mxGeometry x="857.25" y="512.5" width="110" height="30" as="geometry" />
        </mxCell>
        <mxCell id="ZlW_VbL8mxJAc58jKpAu-11" value="" style="endArrow=none;html=1;rounded=0;exitX=0;exitY=0.5;exitDx=0;exitDy=0;entryX=1;entryY=0.5;entryDx=0;entryDy=0;" parent="1" source="ZlW_VbL8mxJAc58jKpAu-9" target="ZlW_VbL8mxJAc58jKpAu-1" edge="1">
          <mxGeometry relative="1" as="geometry">
            <mxPoint x="1206" y="177.5" as="sourcePoint" />
            <mxPoint x="921.5" y="487.5" as="targetPoint" />
          </mxGeometry>
        </mxCell>
        <mxCell id="ZlW_VbL8mxJAc58jKpAu-14" value="target_type_txt" style="ellipse;whiteSpace=wrap;html=1;align=center;" parent="1" vertex="1">
          <mxGeometry x="711.5" y="602.5" width="100" height="30" as="geometry" />
        </mxCell>
        <mxCell id="ZlW_VbL8mxJAc58jKpAu-27" value="event_id" style="ellipse;whiteSpace=wrap;html=1;align=center;fontStyle=4;" parent="1" vertex="1">
          <mxGeometry x="621.5" y="457.5" width="80" height="30" as="geometry" />
        </mxCell>
        <mxCell id="ZlW_VbL8mxJAc58jKpAu-28" value="" style="endArrow=none;html=1;rounded=0;entryX=0;entryY=0;entryDx=0;entryDy=0;exitX=1;exitY=1;exitDx=0;exitDy=0;" parent="1" source="ZlW_VbL8mxJAc58jKpAu-27" target="ZlW_VbL8mxJAc58jKpAu-1" edge="1">
          <mxGeometry relative="1" as="geometry">
            <mxPoint x="411.5" y="487.5" as="sourcePoint" />
            <mxPoint x="571.5" y="487.5" as="targetPoint" />
          </mxGeometry>
        </mxCell>
        <mxCell id="ZlW_VbL8mxJAc58jKpAu-29" value="target_type_id" style="ellipse;whiteSpace=wrap;html=1;align=center;fontStyle=4;" parent="1" vertex="1">
          <mxGeometry x="600" y="567.49" width="100" height="30" as="geometry" />
        </mxCell>
        <mxCell id="ZlW_VbL8mxJAc58jKpAu-30" value="" style="endArrow=none;html=1;rounded=0;entryX=0;entryY=1;entryDx=0;entryDy=0;exitX=1;exitY=0;exitDx=0;exitDy=0;" parent="1" source="ZlW_VbL8mxJAc58jKpAu-29" target="ZlW_VbL8mxJAc58jKpAu-1" edge="1">
          <mxGeometry relative="1" as="geometry">
            <mxPoint x="411.5" y="487.5" as="sourcePoint" />
            <mxPoint x="571.5" y="487.5" as="targetPoint" />
          </mxGeometry>
        </mxCell>
        <mxCell id="ZlW_VbL8mxJAc58jKpAu-31" value="nationality_id" style="ellipse;whiteSpace=wrap;html=1;align=center;fontStyle=4;" parent="1" vertex="1">
          <mxGeometry x="821.5" y="457.5" width="100" height="30" as="geometry" />
        </mxCell>
        <mxCell id="ZlW_VbL8mxJAc58jKpAu-32" value="" style="endArrow=none;html=1;rounded=0;entryX=0;entryY=1;entryDx=0;entryDy=0;exitX=1;exitY=0;exitDx=0;exitDy=0;" parent="1" source="ZlW_VbL8mxJAc58jKpAu-1" target="ZlW_VbL8mxJAc58jKpAu-31" edge="1">
          <mxGeometry relative="1" as="geometry">
            <mxPoint x="411.5" y="487.5" as="sourcePoint" />
            <mxPoint x="571.5" y="487.5" as="targetPoint" />
          </mxGeometry>
        </mxCell>
        <mxCell id="ZlW_VbL8mxJAc58jKpAu-34" value="target_subtype_id" style="ellipse;whiteSpace=wrap;html=1;align=center;fontStyle=4;" parent="1" vertex="1">
          <mxGeometry x="796" y="567.49" width="110" height="30" as="geometry" />
        </mxCell>
        <mxCell id="ZlW_VbL8mxJAc58jKpAu-35" value="" style="endArrow=none;html=1;rounded=0;entryX=1;entryY=1;entryDx=0;entryDy=0;exitX=0.5;exitY=0;exitDx=0;exitDy=0;" parent="1" source="ZlW_VbL8mxJAc58jKpAu-34" target="ZlW_VbL8mxJAc58jKpAu-1" edge="1">
          <mxGeometry relative="1" as="geometry">
            <mxPoint x="411.5" y="577.5" as="sourcePoint" />
            <mxPoint x="571.5" y="577.5" as="targetPoint" />
          </mxGeometry>
        </mxCell>
        <mxCell id="ZlW_VbL8mxJAc58jKpAu-69" value="event_weapon" style="whiteSpace=wrap;html=1;align=center;" parent="1" vertex="1">
          <mxGeometry x="449" y="859" width="100" height="40" as="geometry" />
        </mxCell>
        <mxCell id="ZlW_VbL8mxJAc58jKpAu-72" value="weapon_subtype_txt" style="ellipse;whiteSpace=wrap;html=1;align=center;" parent="1" vertex="1">
          <mxGeometry x="439" y="960" width="120" height="30" as="geometry" />
        </mxCell>
        <mxCell id="ZlW_VbL8mxJAc58jKpAu-74" value="" style="endArrow=none;html=1;rounded=0;exitX=0.5;exitY=0;exitDx=0;exitDy=0;entryX=0.5;entryY=1;entryDx=0;entryDy=0;" parent="1" source="ZlW_VbL8mxJAc58jKpAu-72" target="ZlW_VbL8mxJAc58jKpAu-69" edge="1">
          <mxGeometry relative="1" as="geometry">
            <mxPoint x="808.75" y="759" as="sourcePoint" />
            <mxPoint x="524.25" y="1069" as="targetPoint" />
          </mxGeometry>
        </mxCell>
        <mxCell id="ZlW_VbL8mxJAc58jKpAu-77" value="weapon_type_txt" style="ellipse;whiteSpace=wrap;html=1;align=center;" parent="1" vertex="1">
          <mxGeometry x="585" y="864" width="110" height="30" as="geometry" />
        </mxCell>
        <mxCell id="ZlW_VbL8mxJAc58jKpAu-79" value="" style="endArrow=none;html=1;rounded=0;exitX=0;exitY=0.5;exitDx=0;exitDy=0;entryX=1;entryY=0.5;entryDx=0;entryDy=0;" parent="1" source="ZlW_VbL8mxJAc58jKpAu-77" target="ZlW_VbL8mxJAc58jKpAu-69" edge="1">
          <mxGeometry relative="1" as="geometry">
            <mxPoint x="952.25" y="526" as="sourcePoint" />
            <mxPoint x="667.75" y="836" as="targetPoint" />
          </mxGeometry>
        </mxCell>
        <mxCell id="ZlW_VbL8mxJAc58jKpAu-85" value="event_id" style="ellipse;whiteSpace=wrap;html=1;align=center;fontStyle=4;" parent="1" vertex="1">
          <mxGeometry x="359" y="909" width="80" height="30" as="geometry" />
        </mxCell>
        <mxCell id="ZlW_VbL8mxJAc58jKpAu-86" value="" style="endArrow=none;html=1;rounded=0;entryX=0;entryY=1;entryDx=0;entryDy=0;exitX=1;exitY=0;exitDx=0;exitDy=0;" parent="1" source="ZlW_VbL8mxJAc58jKpAu-85" target="ZlW_VbL8mxJAc58jKpAu-69" edge="1">
          <mxGeometry relative="1" as="geometry">
            <mxPoint x="149" y="839" as="sourcePoint" />
            <mxPoint x="309" y="839" as="targetPoint" />
          </mxGeometry>
        </mxCell>
        <mxCell id="ZlW_VbL8mxJAc58jKpAu-89" value="weapon_type_id" style="ellipse;whiteSpace=wrap;html=1;align=center;fontStyle=4;" parent="1" vertex="1">
          <mxGeometry x="559" y="809" width="100" height="30" as="geometry" />
        </mxCell>
        <mxCell id="ZlW_VbL8mxJAc58jKpAu-90" value="" style="endArrow=none;html=1;rounded=0;entryX=0;entryY=1;entryDx=0;entryDy=0;exitX=1;exitY=0;exitDx=0;exitDy=0;" parent="1" source="ZlW_VbL8mxJAc58jKpAu-69" target="ZlW_VbL8mxJAc58jKpAu-89" edge="1">
          <mxGeometry relative="1" as="geometry">
            <mxPoint x="149" y="839" as="sourcePoint" />
            <mxPoint x="309" y="839" as="targetPoint" />
          </mxGeometry>
        </mxCell>
        <mxCell id="ZlW_VbL8mxJAc58jKpAu-92" value="weapon_subtype_id" style="ellipse;whiteSpace=wrap;html=1;align=center;fontStyle=4;" parent="1" vertex="1">
          <mxGeometry x="533.5" y="918.99" width="120" height="30" as="geometry" />
        </mxCell>
        <mxCell id="ZlW_VbL8mxJAc58jKpAu-93" value="" style="endArrow=none;html=1;rounded=0;entryX=1;entryY=1;entryDx=0;entryDy=0;exitX=0.5;exitY=0;exitDx=0;exitDy=0;" parent="1" source="ZlW_VbL8mxJAc58jKpAu-92" target="ZlW_VbL8mxJAc58jKpAu-69" edge="1">
          <mxGeometry relative="1" as="geometry">
            <mxPoint x="149" y="929" as="sourcePoint" />
            <mxPoint x="309" y="929" as="targetPoint" />
          </mxGeometry>
        </mxCell>
        <mxCell id="ZlW_VbL8mxJAc58jKpAu-102" value="event_attack_type" style="whiteSpace=wrap;html=1;align=center;" parent="1" vertex="1">
          <mxGeometry x="194" y="796" width="110" height="40" as="geometry" />
        </mxCell>
        <mxCell id="ZlW_VbL8mxJAc58jKpAu-105" value="attack_type_txt" style="ellipse;whiteSpace=wrap;html=1;align=center;" parent="1" vertex="1">
          <mxGeometry x="304" y="746" width="100" height="30" as="geometry" />
        </mxCell>
        <mxCell id="ZlW_VbL8mxJAc58jKpAu-107" value="" style="endArrow=none;html=1;rounded=0;exitX=0.5;exitY=1;exitDx=0;exitDy=0;entryX=1;entryY=0;entryDx=0;entryDy=0;" parent="1" source="ZlW_VbL8mxJAc58jKpAu-105" target="ZlW_VbL8mxJAc58jKpAu-102" edge="1">
          <mxGeometry relative="1" as="geometry">
            <mxPoint x="633" y="426" as="sourcePoint" />
            <mxPoint x="343.5" y="736" as="targetPoint" />
          </mxGeometry>
        </mxCell>
        <mxCell id="ZlW_VbL8mxJAc58jKpAu-112" value="attack_type_id" style="ellipse;whiteSpace=wrap;html=1;align=center;fontStyle=4;" parent="1" vertex="1">
          <mxGeometry x="99" y="746" width="100" height="30" as="geometry" />
        </mxCell>
        <mxCell id="ZlW_VbL8mxJAc58jKpAu-113" value="" style="endArrow=none;html=1;rounded=0;entryX=0.5;entryY=1;entryDx=0;entryDy=0;exitX=0;exitY=0;exitDx=0;exitDy=0;" parent="1" source="ZlW_VbL8mxJAc58jKpAu-102" target="ZlW_VbL8mxJAc58jKpAu-112" edge="1">
          <mxGeometry relative="1" as="geometry">
            <mxPoint x="-101" y="776" as="sourcePoint" />
            <mxPoint x="59" y="776" as="targetPoint" />
          </mxGeometry>
        </mxCell>
        <mxCell id="ahwuG_6ItEAnRInKI0Z5-1" value="" style="endArrow=none;html=1;rounded=0;exitX=0.36;exitY=1;exitDx=0;exitDy=0;exitPerimeter=0;entryX=1;entryY=0;entryDx=0;entryDy=0;" parent="1" source="nkECsJHCFClMcqE2vH5_-14" target="nkECsJHCFClMcqE2vH5_-63" edge="1">
          <mxGeometry relative="1" as="geometry">
            <mxPoint x="810" y="360" as="sourcePoint" />
            <mxPoint x="970" y="360" as="targetPoint" />
          </mxGeometry>
        </mxCell>
        <mxCell id="ahwuG_6ItEAnRInKI0Z5-2" value="nkill" style="ellipse;whiteSpace=wrap;html=1;align=center;" parent="1" vertex="1">
          <mxGeometry x="318" y="661" width="80" height="30" as="geometry" />
        </mxCell>
        <mxCell id="ahwuG_6ItEAnRInKI0Z5-3" value="nkill_ter" style="ellipse;whiteSpace=wrap;html=1;align=center;" parent="1" vertex="1">
          <mxGeometry x="462" y="617" width="80" height="30" as="geometry" />
        </mxCell>
        <mxCell id="ahwuG_6ItEAnRInKI0Z5-4" value="nkill_us" style="ellipse;whiteSpace=wrap;html=1;align=center;" parent="1" vertex="1">
          <mxGeometry x="454.5" y="661" width="80" height="30" as="geometry" />
        </mxCell>
        <mxCell id="ahwuG_6ItEAnRInKI0Z5-5" value="" style="endArrow=none;html=1;rounded=0;exitX=1;exitY=0.75;exitDx=0;exitDy=0;entryX=0;entryY=0;entryDx=0;entryDy=0;" parent="1" source="nkECsJHCFClMcqE2vH5_-14" target="ahwuG_6ItEAnRInKI0Z5-3" edge="1">
          <mxGeometry relative="1" as="geometry">
            <mxPoint x="470" y="430" as="sourcePoint" />
            <mxPoint x="630" y="430" as="targetPoint" />
          </mxGeometry>
        </mxCell>
        <mxCell id="ahwuG_6ItEAnRInKI0Z5-6" value="" style="endArrow=none;html=1;rounded=0;exitX=1;exitY=1;exitDx=0;exitDy=0;entryX=0;entryY=0;entryDx=0;entryDy=0;" parent="1" source="nkECsJHCFClMcqE2vH5_-14" target="ahwuG_6ItEAnRInKI0Z5-4" edge="1">
          <mxGeometry relative="1" as="geometry">
            <mxPoint x="470" y="430" as="sourcePoint" />
            <mxPoint x="630" y="430" as="targetPoint" />
          </mxGeometry>
        </mxCell>
        <mxCell id="ahwuG_6ItEAnRInKI0Z5-7" value="" style="endArrow=none;html=1;rounded=0;exitX=0.5;exitY=1;exitDx=0;exitDy=0;entryX=1;entryY=0;entryDx=0;entryDy=0;" parent="1" source="nkECsJHCFClMcqE2vH5_-14" target="ahwuG_6ItEAnRInKI0Z5-2" edge="1">
          <mxGeometry relative="1" as="geometry">
            <mxPoint x="470" y="430" as="sourcePoint" />
            <mxPoint x="630" y="430" as="targetPoint" />
          </mxGeometry>
        </mxCell>
        <mxCell id="zHLwALYV0h54cVdz5XwW-1" value="" style="endArrow=none;html=1;rounded=0;entryX=0.5;entryY=1;entryDx=0;entryDy=0;exitX=0.5;exitY=0;exitDx=0;exitDy=0;" edge="1" parent="1" source="ZlW_VbL8mxJAc58jKpAu-14" target="ZlW_VbL8mxJAc58jKpAu-1">
          <mxGeometry relative="1" as="geometry">
            <mxPoint x="577.25" y="515.5" as="sourcePoint" />
            <mxPoint x="737.25" y="515.5" as="targetPoint" />
          </mxGeometry>
        </mxCell>
        <mxCell id="zHLwALYV0h54cVdz5XwW-6" value="event_id" style="ellipse;whiteSpace=wrap;html=1;align=center;fontStyle=4;" vertex="1" parent="1">
          <mxGeometry x="105" y="846" width="80" height="30" as="geometry" />
        </mxCell>
        <mxCell id="zHLwALYV0h54cVdz5XwW-7" value="" style="endArrow=none;html=1;rounded=0;entryX=0;entryY=1;entryDx=0;entryDy=0;exitX=1;exitY=0;exitDx=0;exitDy=0;" edge="1" parent="1" source="zHLwALYV0h54cVdz5XwW-6">
          <mxGeometry relative="1" as="geometry">
            <mxPoint x="-105" y="776" as="sourcePoint" />
            <mxPoint x="195" y="836" as="targetPoint" />
          </mxGeometry>
        </mxCell>
        <mxCell id="zHLwALYV0h54cVdz5XwW-9" value="crit2" style="ellipse;shape=ellipse;margin=3;whiteSpace=wrap;html=1;align=center;" vertex="1" parent="1">
          <mxGeometry x="469" y="452.5" width="80" height="30" as="geometry" />
        </mxCell>
        <mxCell id="zHLwALYV0h54cVdz5XwW-10" value="" style="endArrow=none;html=1;rounded=0;entryX=0;entryY=1;entryDx=0;entryDy=0;exitX=1;exitY=0.25;exitDx=0;exitDy=0;" edge="1" parent="1" target="zHLwALYV0h54cVdz5XwW-9" source="nkECsJHCFClMcqE2vH5_-14">
          <mxGeometry relative="1" as="geometry">
            <mxPoint x="348.75" y="532" as="sourcePoint" />
            <mxPoint x="822.75" y="491.5" as="targetPoint" />
          </mxGeometry>
        </mxCell>
        <mxCell id="zHLwALYV0h54cVdz5XwW-11" value="crit3" style="ellipse;shape=ellipse;margin=3;whiteSpace=wrap;html=1;align=center;" vertex="1" parent="1">
          <mxGeometry x="479" y="510.5" width="80" height="30" as="geometry" />
        </mxCell>
        <mxCell id="zHLwALYV0h54cVdz5XwW-12" value="" style="endArrow=none;html=1;rounded=0;entryX=0;entryY=0.5;entryDx=0;entryDy=0;exitX=1;exitY=0.5;exitDx=0;exitDy=0;" edge="1" parent="1" target="zHLwALYV0h54cVdz5XwW-11" source="nkECsJHCFClMcqE2vH5_-14">
          <mxGeometry relative="1" as="geometry">
            <mxPoint x="398" y="590" as="sourcePoint" />
            <mxPoint x="832.75" y="549.5" as="targetPoint" />
          </mxGeometry>
        </mxCell>
      </root>
    </mxGraphModel>
  </diagram>
</mxfile>
